<?xml version="1.0" encoding="UTF-8"?>
<svg width="399px" height="415px" viewBox="0 0 399 415" version="1.1" xmlns="http://www.w3.org/2000/svg" xmlns:xlink="http://www.w3.org/1999/xlink">
    <title>Group 3</title>
    <g id="Estructura-Empresa" stroke="none" stroke-width="1" fill="none" fill-rule="evenodd">
        <g id="TECHNOLOGIES" transform="translate(-139.000000, -3699.000000)">
            <g id="VorticApp2" transform="translate(69.000000, 3647.000000)">
                <g id="Group-3" transform="translate(70.000000, 52.000000)">
                    <g id="Group-2" transform="translate(31.893023, 0.000000)">
                        <g id="chip-ai-svgrepo-com" transform="translate(119.176744, 165.000000)" fill="#FFFFFF" fill-rule="nonzero">
                            <path d="M81.3234894,25.858916 L81.3234894,15.8191113 L72.1682549,15.8191113 L72.1682549,0 L65.9238225,0 L65.9238225,15.8191113 L58.0539039,15.8191113 L58.0539039,0 L51.8094714,0 L51.8094714,15.8191113 L43.9395528,15.8191113 L43.9395528,0 L37.6951203,0 L37.6951203,15.8191113 L29.8252018,15.8191113 L29.8252018,0 L23.5807693,0 L23.5807693,15.8191113 L14.4253478,15.8191113 L14.4253478,25.858916 L0,25.858916 L0,32.7066797 L14.4253478,32.7066797 L14.4253478,41.3369824 L0,41.3369824 L0,48.1847461 L14.4253478,48.1847461 L14.4253478,56.8150488 L0,56.8150488 L0,63.6628125 L14.4253478,63.6628125 L14.4253478,72.2931152 L0,72.2931152 L0,79.1408789 L14.4253478,79.1408789 L14.4253478,89.1806836 L23.5805823,89.1806836 L23.5805823,105 L29.8250148,105 L29.8250148,89.1808887 L37.6949333,89.1808887 L37.6949333,105 L43.9393658,105 L43.9393658,89.1808887 L51.8092844,89.1808887 L51.8092844,105 L58.0537169,105 L58.0537169,89.1808887 L65.9236354,89.1808887 L65.9236354,105 L72.1680679,105 L72.1680679,89.1808887 L81.3233024,89.1808887 L81.3233024,79.141084 L95.7488372,79.141084 L95.7488372,72.2933203 L81.3234894,72.2933203 L81.3234894,63.6630176 L95.7488372,63.6630176 L95.7488372,56.8152539 L81.3234894,56.8152539 L81.3234894,48.1849512 L95.7488372,48.1849512 L95.7488372,41.3371875 L81.3234894,41.3371875 L81.3234894,32.7068848 L95.7488372,32.7068848 L95.7488372,25.8593262 L81.3234894,25.8593262 L81.3234894,25.858916 Z M75.079244,82.3329199 L75.079244,82.3329199 L20.6699672,82.3329199 L20.6699672,22.6670801 L75.079244,22.6670801 L75.079244,82.3329199 Z" id="Shape"></path>
                            <path d="M70.3696273,46.3813666 C70.3696273,41.674787 67.7034228,37.5686235 63.9035742,35.8563183 C63.6455181,30.3235762 59.4490068,25.9090909 54.3275126,25.9090909 C51.8444265,25.9090909 49.5790166,26.9468267 47.8742308,28.6461909 C46.169445,26.9468267 43.9040351,25.9090909 41.420949,25.9090909 C36.299267,25.9090909 32.1025679,30.3235762 31.8448874,35.8563183 C28.0446632,37.5686235 25.3792099,41.674787 25.3792099,46.3813666 C25.3792099,48.3485866 25.8384146,50.2005711 26.6454504,51.8163331 C25.8207601,53.4700961 25.3792099,55.3315296 25.3792099,57.2552025 C25.3792099,62.0053292 28.0555564,66.0825298 31.845263,67.7831265 C32.1046338,73.3144307 36.3005817,77.7272727 41.4211368,77.7272727 C43.9042229,77.7272727 46.1696328,76.6895369 47.8744186,74.9901727 C49.5792044,76.6895369 51.8446143,77.7272727 54.3277004,77.7272727 C59.4484433,77.7272727 63.6443912,73.3144307 63.9035742,67.7831265 C67.6929052,66.0823244 70.3696273,62.0051237 70.3696273,57.2552025 C70.3696273,55.3313242 69.9280771,53.4698907 69.1033868,51.8163331 C69.910047,50.2003657 70.3696273,48.3483812 70.3696273,46.3813666 Z M44.7384918,67.2400201 C44.7384918,69.2407221 43.2502553,70.8683979 41.420949,70.8683979 C39.9291441,70.8683979 38.6649695,69.7856772 38.2489619,68.3013781 C40.2503057,67.7648449 42.0859976,66.588046 43.491596,64.8907358 L38.8433926,60.2860401 C38.0496915,61.2446927 36.961874,61.7725986 35.7805253,61.7725986 C33.5029075,61.7725986 31.6501245,59.7460148 31.6501245,57.2552025 C31.6501245,57.1120311 31.6563223,56.9698868 31.6685302,56.8287695 C32.9304511,57.4252827 34.3204609,57.7574321 35.7807131,57.7574321 L35.7807131,50.8985573 C33.5030953,50.8985573 31.6503123,48.8719735 31.6503123,46.3809557 C31.6501245,44.7567719 32.4485209,43.312528 33.6467728,42.5157392 C34.7312097,44.165394 36.2479938,45.476737 38.0534478,46.2174487 L40.2559401,39.7954828 C38.9684766,39.2673715 38.1034062,37.9011837 38.1034062,36.3961381 C38.1034062,34.3954361 39.5916427,32.7677603 41.420949,32.7677603 C43.2502553,32.7677603 44.7384918,34.3954361 44.7384918,36.3961381 L44.7384918,67.2400201 L44.7384918,67.2400201 Z M64.0797436,56.8287695 C64.0919515,56.9698868 64.0981493,57.1120311 64.0981493,57.2552025 C64.0981493,59.7462203 62.2451785,61.7725986 59.9675607,61.7725986 C58.7863997,61.7725986 57.6985823,61.2446927 56.9048812,60.2860401 L52.2568656,64.8907358 C53.6626518,66.588046 55.4981559,67.7650503 57.4994997,68.3013781 C57.0834921,69.7858826 55.8191297,70.8683979 54.3275126,70.8683979 C52.4982063,70.8683979 51.0099698,69.2407221 51.0099698,67.2400201 L51.0099698,36.3963435 C51.0099698,34.3956415 52.4982063,32.7679657 54.3275126,32.7679657 C56.1566311,32.7679657 57.6450553,34.3956415 57.6450553,36.3963435 C57.6450553,37.9013891 56.779985,39.2675769 55.4925215,39.7956882 L57.6950138,46.2176541 C59.5004678,45.4769424 61.0170641,44.165394 62.1016887,42.5159446 C63.2999407,43.3127334 64.0983371,44.7571827 64.0983371,46.3811612 C64.0983371,48.8721789 62.2453663,50.8987627 59.9677485,50.8987627 L59.9677485,57.7576375 C61.427625,57.7576375 62.8178227,57.4252827 64.0797436,56.8287695 Z" id="Shape"></path>
                        </g>
                        <g id="vorticAppIcon" transform="translate(118.158140, 0.000000)" fill="#FFFFFF">
                            <path d="M94.8418605,0 C98.155569,7.33259634e-15 100.84186,2.6862915 100.84186,6 L100.84186,86 C100.84186,89.3137085 98.155569,92 94.8418605,92 L6,92 C2.6862915,92 4.05812251e-16,89.3137085 0,86 L0,6 C-4.05812251e-16,2.6862915 2.6862915,-2.79460044e-16 6,0 L94.8418605,0 Z M75.7691575,25.6393443 L65.2543593,25.6393443 L45.4614945,67.0250347 L50.7615909,78.4262295 L75.7691575,25.6393443 Z M60.615326,25.6393443 L26.1747998,25.6393443 L43.5047863,61.8360656 L48.7984418,51.0860504 L41.5254968,35.3433772 L56.1870936,35.3433772 L60.615326,25.6393443 Z M9.64334731,4.52459016 C7.36083003,4.52459016 5.51048418,6.55031818 5.51048418,9.04918033 C5.51048418,11.5480425 7.36083003,13.5737705 9.64334731,13.5737705 C11.9258646,13.5737705 13.7762104,11.5480425 13.7762104,9.04918033 C13.7762104,6.55031818 11.9258646,4.52459016 9.64334731,4.52459016 Z M19.2866946,4.52459016 C17.0041773,4.52459016 15.1538315,6.55031818 15.1538315,9.04918033 C15.1538315,11.5480425 17.0041773,13.5737705 19.2866946,13.5737705 C21.5692119,13.5737705 23.4195578,11.5480425 23.4195578,9.04918033 C23.4195578,6.55031818 21.5692119,4.52459016 19.2866946,4.52459016 Z M28.9300419,4.52459016 C26.6475247,4.52459016 24.7971788,6.55031818 24.7971788,9.04918033 C24.7971788,11.5480425 26.6475247,13.5737705 28.9300419,13.5737705 C31.2125592,13.5737705 33.0629051,11.5480425 33.0629051,9.04918033 C33.0629051,6.55031818 31.2125592,4.52459016 28.9300419,4.52459016 Z" id="Combined-Shape"></path>
                        </g>
                        <polyline id="Line-2" stroke="#FFFFFF" stroke-linecap="square" points="170.106977 358 170.106977 337.801527 158.902326 337.801527 158.902326 260"></polyline>
                        <polyline id="Line-2" stroke="#FFFFFF" stroke-linecap="square" points="174.181395 169 174.181395 148.801527 162.976744 148.801527 162.976744 71"></polyline>
                        <polyline id="Line-2" stroke="#FFFFFF" stroke-linecap="square" points="1.50008622e-16 356 1.50008622e-16 289.88725 145.660465 289.88725 145.660465 270"></polyline>
                        <polyline id="Line-2" stroke="#FFFFFF" stroke-linecap="square" points="339.195349 356 339.195349 289.88725 188.44186 289.88725 188.44186 270"></polyline>
                    </g>
                    <g id="tools-svgrepo-com" transform="translate(169.000000, 354.000000)" fill="#FFFFFF" fill-rule="nonzero">
                        <path d="M36.2187627,42.1713844 C36.2187627,43.3268019 35.3653059,44.2634528 34.3125137,44.2634528 L26.6875176,44.2634528 C25.6347253,44.2634528 24.7812685,43.3268019 24.7812685,42.1713844 L24.7812685,37.9872476 L3.12171335e-05,37.9872476 L3.12171335e-05,56.8158632 C3.12171335e-05,59.1266981 1.70694473,61 3.81252927,61 L57.187502,61 C59.2930865,61 61,59.1266981 61,56.8158632 L61,37.9872476 L36.2187627,37.9872476 L36.2187627,42.1713844 Z" id="Path"></path>
                        <path d="M60.4471881,23.1416238 L52.6506336,11.8469649 C52.2955747,11.3367883 51.8163449,11.0491716 51.31626,11.0461211 L41.7850199,11.0461211 L41.7850199,5.66113709 C41.8387843,2.64175123 40.2083184,0.119811205 38.1250237,0 L22.5700398,0 C21.5815792,0.0563467216 20.6509571,0.689934176 19.9901927,1.75641496 C19.3294284,2.82289575 18.9947996,4.23143701 19.0625434,5.66113709 L19.0625434,11.0461211 L9.6838031,11.0461211 C9.17711669,11.0418773 8.6901119,11.3300437 8.330367,11.8469649 L0.552875049,23.1416238 C0.196051125,23.6627766 -0.0028663228,24.3682873 3.12171331e-05,25.1023103 L3.12171331e-05,35.8998937 L24.7812875,35.8998937 L24.7812875,30.3768332 C24.7812875,28.8516821 25.6347438,27.6153029 26.6875355,27.6153029 L34.3125276,27.6153029 C35.3653193,27.6153029 36.2187756,28.8516821 36.2187756,30.3768332 L36.2187756,35.8998937 L61,35.8998937 L61,25.074695 C60.9978943,24.3502355 60.7993563,23.6559882 60.4471881,23.1416238 Z M38.2388176,11.0461211 L22.7612136,11.0461211 L22.7612136,5.52306057 L38.2388176,5.52306057 L38.2388176,11.0461211 Z" id="Shape"></path>
                    </g>
                    <g id="tools-svgrepo-com" transform="translate(0.000000, 354.000000)" fill="#FFFFFF" fill-rule="nonzero">
                        <path d="M36.2187627,42.1713844 C36.2187627,43.3268019 35.3653059,44.2634528 34.3125137,44.2634528 L26.6875176,44.2634528 C25.6347253,44.2634528 24.7812685,43.3268019 24.7812685,42.1713844 L24.7812685,37.9872476 L3.12171335e-05,37.9872476 L3.12171335e-05,56.8158632 C3.12171335e-05,59.1266981 1.70694473,61 3.81252927,61 L57.187502,61 C59.2930865,61 61,59.1266981 61,56.8158632 L61,37.9872476 L36.2187627,37.9872476 L36.2187627,42.1713844 Z" id="Path"></path>
                        <path d="M60.4471881,23.1416238 L52.6506336,11.8469649 C52.2955747,11.3367883 51.8163449,11.0491716 51.31626,11.0461211 L41.7850199,11.0461211 L41.7850199,5.66113709 C41.8387843,2.64175123 40.2083184,0.119811205 38.1250237,0 L22.5700398,0 C21.5815792,0.0563467216 20.6509571,0.689934176 19.9901927,1.75641496 C19.3294284,2.82289575 18.9947996,4.23143701 19.0625434,5.66113709 L19.0625434,11.0461211 L9.6838031,11.0461211 C9.17711669,11.0418773 8.6901119,11.3300437 8.330367,11.8469649 L0.552875049,23.1416238 C0.196051125,23.6627766 -0.0028663228,24.3682873 3.12171331e-05,25.1023103 L3.12171331e-05,35.8998937 L24.7812875,35.8998937 L24.7812875,30.3768332 C24.7812875,28.8516821 25.6347438,27.6153029 26.6875355,27.6153029 L34.3125276,27.6153029 C35.3653193,27.6153029 36.2187756,28.8516821 36.2187756,30.3768332 L36.2187756,35.8998937 L61,35.8998937 L61,25.074695 C60.9978943,24.3502355 60.7993563,23.6559882 60.4471881,23.1416238 Z M38.2388176,11.0461211 L22.7612136,11.0461211 L22.7612136,5.52306057 L38.2388176,5.52306057 L38.2388176,11.0461211 Z" id="Shape"></path>
                    </g>
                    <g id="tools-svgrepo-com" transform="translate(338.000000, 354.000000)" fill="#FFFFFF" fill-rule="nonzero">
                        <path d="M36.2187627,42.1713844 C36.2187627,43.3268019 35.3653059,44.2634528 34.3125137,44.2634528 L26.6875176,44.2634528 C25.6347253,44.2634528 24.7812685,43.3268019 24.7812685,42.1713844 L24.7812685,37.9872476 L3.12171335e-05,37.9872476 L3.12171335e-05,56.8158632 C3.12171335e-05,59.1266981 1.70694473,61 3.81252927,61 L57.187502,61 C59.2930865,61 61,59.1266981 61,56.8158632 L61,37.9872476 L36.2187627,37.9872476 L36.2187627,42.1713844 Z" id="Path"></path>
                        <path d="M60.4471881,23.1416238 L52.6506336,11.8469649 C52.2955747,11.3367883 51.8163449,11.0491716 51.31626,11.0461211 L41.7850199,11.0461211 L41.7850199,5.66113709 C41.8387843,2.64175123 40.2083184,0.119811205 38.1250237,0 L22.5700398,0 C21.5815792,0.0563467216 20.6509571,0.689934176 19.9901927,1.75641496 C19.3294284,2.82289575 18.9947996,4.23143701 19.0625434,5.66113709 L19.0625434,11.0461211 L9.6838031,11.0461211 C9.17711669,11.0418773 8.6901119,11.3300437 8.330367,11.8469649 L0.552875049,23.1416238 C0.196051125,23.6627766 -0.0028663228,24.3682873 3.12171331e-05,25.1023103 L3.12171331e-05,35.8998937 L24.7812875,35.8998937 L24.7812875,30.3768332 C24.7812875,28.8516821 25.6347438,27.6153029 26.6875355,27.6153029 L34.3125276,27.6153029 C35.3653193,27.6153029 36.2187756,28.8516821 36.2187756,30.3768332 L36.2187756,35.8998937 L61,35.8998937 L61,25.074695 C60.9978943,24.3502355 60.7993563,23.6559882 60.4471881,23.1416238 Z M38.2388176,11.0461211 L22.7612136,11.0461211 L22.7612136,5.52306057 L38.2388176,5.52306057 L38.2388176,11.0461211 Z" id="Shape"></path>
                    </g>
                </g>
            </g>
        </g>
    </g>
</svg>