<?xml version="1.0" encoding="UTF-8"?>
<svg width="61px" height="61px" viewBox="0 0 61 61" version="1.1" xmlns="http://www.w3.org/2000/svg" xmlns:xlink="http://www.w3.org/1999/xlink">
    <title>tools-svgrepo-com</title>
    <g id="Estructura-Empresa" stroke="none" stroke-width="1" fill="none" fill-rule="evenodd">
        <g id="TECHNOLOGIES" transform="translate(-972.999966, -3119.000000)" fill="#FFFFFF" fill-rule="nonzero">
            <g id="Card-VorticTools" transform="translate(937.000000, 3070.000000)">
                <g id="tools-svgrepo-com" transform="translate(35.999966, 49.000000)">
                    <path d="M36.2187627,42.1713844 C36.2187627,43.3268019 35.3653059,44.2634528 34.3125137,44.2634528 L26.6875176,44.2634528 C25.6347253,44.2634528 24.7812685,43.3268019 24.7812685,42.1713844 L24.7812685,37.9872476 L3.12171335e-05,37.9872476 L3.12171335e-05,56.8158632 C3.12171335e-05,59.1266981 1.70694473,61 3.81252927,61 L57.187502,61 C59.2930865,61 61,59.1266981 61,56.8158632 L61,37.9872476 L36.2187627,37.9872476 L36.2187627,42.1713844 Z" id="Path"></path>
                    <path d="M60.4471881,23.1416238 L52.6506336,11.8469649 C52.2955747,11.3367883 51.8163449,11.0491716 51.31626,11.0461211 L41.7850199,11.0461211 L41.7850199,5.66113709 C41.8387843,2.64175123 40.2083184,0.119811205 38.1250237,0 L22.5700398,0 C21.5815792,0.0563467216 20.6509571,0.689934176 19.9901927,1.75641496 C19.3294284,2.82289575 18.9947996,4.23143701 19.0625434,5.66113709 L19.0625434,11.0461211 L9.6838031,11.0461211 C9.17711669,11.0418773 8.6901119,11.3300437 8.330367,11.8469649 L0.552875049,23.1416238 C0.196051125,23.6627766 -0.0028663228,24.3682873 3.12171331e-05,25.1023103 L3.12171331e-05,35.8998937 L24.7812875,35.8998937 L24.7812875,30.3768332 C24.7812875,28.8516821 25.6347438,27.6153029 26.6875355,27.6153029 L34.3125276,27.6153029 C35.3653193,27.6153029 36.2187756,28.8516821 36.2187756,30.3768332 L36.2187756,35.8998937 L61,35.8998937 L61,25.074695 C60.9978943,24.3502355 60.7993563,23.6559882 60.4471881,23.1416238 Z M38.2388176,11.0461211 L22.7612136,11.0461211 L22.7612136,5.52306057 L38.2388176,5.52306057 L38.2388176,11.0461211 Z" id="Shape"></path>
                </g>
            </g>
        </g>
    </g>
</svg>