<?xml version="1.0" encoding="UTF-8"?>
<svg width="73px" height="61px" viewBox="0 0 73 61" version="1.1" xmlns="http://www.w3.org/2000/svg" xmlns:xlink="http://www.w3.org/1999/xlink">
    <title>vorticAppIcon</title>
    <g id="Estructura-Empresa" stroke="none" stroke-width="1" fill="none" fill-rule="evenodd">
        <g id="A1" transform="translate(-171.000000, -102.000000)" fill="#FFFFFF">
            <g id="vorticAppIcon" transform="translate(171.000000, 102.000000)">
                <path d="M67,0 C70.3137085,-6.08718376e-16 73,2.6862915 73,6 L73,55 C73,58.3137085 70.3137085,61 67,61 L6,61 C2.6862915,61 4.05812251e-16,58.3137085 0,55 L0,6 C-4.05812251e-16,2.6862915 2.6862915,6.08718376e-16 6,0 L67,0 Z M54.8497268,17 L47.2380042,17 L32.9098361,44.4405121 L36.7466062,52 L54.8497268,17 Z M43.8797814,17 L18.9480874,17 L31.4933638,41 L35.3254713,33.8722726 L30.0605448,23.4341957 L40.6741587,23.4341957 L43.8797814,17 Z M6.98087432,3 C5.32854699,3 3.98907104,4.34314575 3.98907104,6 C3.98907104,7.65685425 5.32854699,9 6.98087432,9 C8.63320164,9 9.9726776,7.65685425 9.9726776,6 C9.9726776,4.34314575 8.63320164,3 6.98087432,3 Z M13.9617486,3 C12.3094213,3 10.9699454,4.34314575 10.9699454,6 C10.9699454,7.65685425 12.3094213,9 13.9617486,9 C15.614076,9 16.9535519,7.65685425 16.9535519,6 C16.9535519,4.34314575 15.614076,3 13.9617486,3 Z M20.942623,3 C19.2902956,3 17.9508197,4.34314575 17.9508197,6 C17.9508197,7.65685425 19.2902956,9 20.942623,9 C22.5949503,9 23.9344262,7.65685425 23.9344262,6 C23.9344262,4.34314575 22.5949503,3 20.942623,3 Z" id="Combined-Shape"></path>
            </g>
        </g>
    </g>
</svg>