<?xml version="1.0" encoding="UTF-8"?>
<svg width="61px" height="61px" viewBox="0 0 61 61" version="1.1" xmlns="http://www.w3.org/2000/svg" xmlns:xlink="http://www.w3.org/1999/xlink">
    <title>chip-ai-svgrepo-com</title>
    <g id="Estructura-Empresa" stroke="none" stroke-width="1" fill="none" fill-rule="evenodd">
        <g id="TECHNOLOGIES" transform="translate(-520.000000, -3109.000000)" fill="#FFFFFF" fill-rule="nonzero">
            <g id="Card-VorticAssistant" transform="translate(487.000000, 3070.000000)">
                <g id="chip-ai-svgrepo-com" transform="translate(33.000000, 39.000000)">
                    <path d="M51.8098496,15.0227988 L51.8098496,9.19015039 L45.9772012,9.19015039 L45.9772012,0 L41.9989766,0 L41.9989766,9.19015039 L36.9851816,9.19015039 L36.9851816,0 L33.006957,0 L33.006957,9.19015039 L27.9931621,9.19015039 L27.9931621,0 L24.0149375,0 L24.0149375,9.19015039 L19.0011426,9.19015039 L19.0011426,0 L15.022918,0 L15.022918,9.19015039 L9.19015039,9.19015039 L9.19015039,15.0227988 L0,15.0227988 L0,19.0010234 L9.19015039,19.0010234 L9.19015039,24.0148184 L0,24.0148184 L0,27.993043 L9.19015039,27.993043 L9.19015039,33.0068379 L0,33.0068379 L0,36.9850625 L9.19015039,36.9850625 L9.19015039,41.9988574 L0,41.9988574 L0,45.977082 L9.19015039,45.977082 L9.19015039,51.8097305 L15.0227988,51.8097305 L15.0227988,61 L19.0010234,61 L19.0010234,51.8098496 L24.0148184,51.8098496 L24.0148184,61 L27.993043,61 L27.993043,51.8098496 L33.0068379,51.8098496 L33.0068379,61 L36.9850625,61 L36.9850625,51.8098496 L41.9988574,51.8098496 L41.9988574,61 L45.977082,61 L45.977082,51.8098496 L51.8097305,51.8098496 L51.8097305,45.9772012 L61,45.9772012 L61,41.9989766 L51.8098496,41.9989766 L51.8098496,36.9851816 L61,36.9851816 L61,33.006957 L51.8098496,33.006957 L51.8098496,27.9931621 L61,27.9931621 L61,24.0149375 L51.8098496,24.0149375 L51.8098496,19.0011426 L61,19.0011426 L61,15.0230371 L51.8098496,15.0230371 L51.8098496,15.0227988 Z M47.8317441,47.8315059 L47.8317441,47.8315059 L13.1684941,47.8315059 L13.1684941,13.1684941 L47.8317441,13.1684941 L47.8317441,47.8315059 Z" id="Shape"></path>
                    <path d="M44.3636364,26.879911 C44.3636364,24.1522544 42.6657015,21.7725636 40.2458213,20.7802123 C40.0814819,17.5737605 37.4089926,15.0153846 34.147441,15.0153846 C32.5661225,15.0153846 31.123428,15.6167952 30.0377592,16.6016467 C28.9520903,15.6167952 27.5093959,15.0153846 25.9280774,15.0153846 C22.6664061,15.0153846 19.9937973,17.5737605 19.8296971,20.7802123 C17.4095777,21.7725636 15.7121212,24.1522544 15.7121212,26.879911 C15.7121212,28.019996 16.0045593,29.0932972 16.5185087,30.0296978 C15.9933163,30.9881216 15.7121212,32.0668989 15.7121212,33.1817465 C15.7121212,35.9346404 17.4165149,38.297546 19.8299363,39.2831118 C19.995113,42.4887303 22.6672434,45.0461538 25.928197,45.0461538 C27.5095155,45.0461538 28.9522099,44.4447432 30.0378788,43.4598917 C31.1235476,44.4447432 32.5662421,45.0461538 34.1475606,45.0461538 C37.4086338,45.0461538 40.0807642,42.4887303 40.2458213,39.2831118 C42.6590035,38.297427 44.3636364,35.9345214 44.3636364,33.1817465 C44.3636364,32.0667798 44.0824413,30.9880025 43.5572489,30.0296978 C44.0709591,29.0931782 44.3636364,28.0198769 44.3636364,26.879911 Z M28.0408079,38.9683593 C28.0408079,40.1278484 27.0930454,41.0711536 25.9280774,41.0711536 C24.9780424,41.0711536 24.1729705,40.4436723 23.908042,39.5834599 C25.1825696,39.2725169 26.3516042,38.5905134 27.2467398,37.6068524 L24.2865968,34.9382416 C23.7811394,35.4938203 23.0883781,35.7997635 22.3360528,35.7997635 C20.8855839,35.7997635 19.7056651,34.6252748 19.7056651,33.1817465 C19.7056651,33.0987728 19.7096121,33.0163943 19.7173865,32.934611 C20.5210231,33.280315 21.4062313,33.4728092 22.3361724,33.4728092 L22.3361724,29.497809 C20.8857035,29.497809 19.7057847,28.3233203 19.7057847,26.8796729 C19.7056651,25.9383915 20.2141126,25.1013927 20.9772025,24.6396208 C21.6678109,25.5956637 22.6337535,26.355641 23.7835315,26.7849138 L25.1861578,23.0631203 C24.3662547,22.757058 23.8153469,21.965296 23.8153469,21.0930601 C23.8153469,19.933571 24.7631093,18.9902658 25.9280774,18.9902658 C27.0930454,18.9902658 28.0408079,19.933571 28.0408079,21.0930601 L28.0408079,38.9683593 L28.0408079,38.9683593 Z M40.3580123,32.934611 C40.3657867,33.0163943 40.3697337,33.0987728 40.3697337,33.1817465 C40.3697337,34.6253938 39.1896953,35.7997635 37.7392264,35.7997635 C36.9870206,35.7997635 36.2942594,35.4938203 35.788802,34.9382416 L32.8287785,37.6068524 C33.7240337,38.5905134 34.8929488,39.2726359 36.1674764,39.5834599 C35.9025478,40.4437914 35.0973564,41.0711536 34.147441,41.0711536 C32.982473,41.0711536 32.0347105,40.1278484 32.0347105,38.9683593 L32.0347105,21.0931792 C32.0347105,19.93369 32.982473,18.9903849 34.147441,18.9903849 C35.3122894,18.9903849 36.2601715,19.93369 36.2601715,21.0931792 C36.2601715,21.965415 35.7092636,22.7571771 34.8893606,23.0632394 L36.2919868,26.7850329 C37.4417648,26.35576 38.4075879,25.5956637 39.0983158,24.6397399 C39.8614058,25.1015118 40.3698533,25.9386296 40.3698533,26.879792 C40.3698533,28.3234393 39.1898149,29.497928 37.739346,29.497928 L37.739346,33.4729283 C38.6690479,33.4729283 39.5543757,33.280315 40.3580123,32.934611 Z" id="Shape"></path>
                </g>
            </g>
        </g>
    </g>
</svg>